<?xml version="1.0" standalone="no"?>
<!DOCTYPE svg PUBLIC "-//W3C//DTD SVG 20010904//EN"
 "http://www.w3.org/TR/2001/REC-SVG-20010904/DTD/svg10.dtd">
<svg version="1.0" xmlns="http://www.w3.org/2000/svg"
 width="1280.000000pt" height="1110.000000pt" viewBox="0 0 1280.000000 1110.000000"
 preserveAspectRatio="xMidYMid meet">
<metadata>
Created by potrace 1.15, written by Peter Selinger 2001-2017
</metadata>
<g transform="translate(0.000000,1110.000000) scale(0.100000,-0.100000)"
fill="#ffffff" stroke="none">
<path d="M7588 10415 c-804 -97 -1465 -547 -1673 -1137 -15 -43 -30 -78 -34
-78 -3 0 -49 16 -101 36 -299 111 -702 199 -1095 240 -194 20 -669 23 -855 5
-1183 -114 -2166 -607 -2730 -1371 -192 -261 -328 -563 -396 -881 -35 -167
-45 -483 -20 -662 93 -662 500 -1261 1161 -1706 278 -187 624 -356 936 -456
l86 -28 6 -165 c4 -91 7 -277 7 -414 l0 -248 -75 -1 c-41 -1 -80 -2 -87 -3 -7
0 -30 -33 -53 -73 -22 -39 -43 -74 -47 -78 -3 -4 -171 85 -373 197 l-367 203
6 235 c3 129 9 348 12 486 l7 251 -33 6 c-18 4 -72 7 -120 7 l-87 0 -6 -142
c-4 -79 -8 -217 -8 -308 -1 -91 -4 -217 -8 -282 l-6 -116 -223 124 c-122 68
-226 124 -231 124 -5 0 -50 -73 -100 -162 l-90 -162 127 -71 c70 -40 173 -98
230 -129 57 -32 102 -59 100 -61 -2 -1 -154 -100 -338 -220 -184 -119 -341
-223 -349 -231 -12 -11 -5 -27 49 -109 35 -53 68 -94 75 -92 6 3 185 118 397
256 213 138 393 253 401 257 8 3 174 -84 378 -197 200 -111 366 -203 368 -205
2 -2 -13 -33 -33 -69 l-36 -65 40 -65 c22 -36 40 -69 40 -74 0 -4 -162 -108
-359 -229 l-360 -222 -415 245 c-228 135 -419 245 -423 245 -8 0 -106 -160
-117 -190 -4 -11 87 -69 349 -224 196 -115 358 -212 360 -216 3 -4 -89 -65
-203 -135 -114 -70 -213 -133 -220 -140 -11 -10 5 -41 84 -169 64 -104 101
-155 110 -152 7 3 109 64 225 136 117 71 213 129 214 128 1 -2 14 -190 29
-418 15 -228 29 -416 30 -418 2 -2 56 0 120 4 109 7 116 8 116 28 0 12 -14
230 -31 484 -17 255 -29 465 -27 467 2 2 165 103 362 225 266 164 362 218 367
208 5 -7 23 -38 42 -68 l33 -55 86 -3 86 -3 7 -102 c3 -56 5 -246 3 -422 l-3
-319 -75 -41 c-41 -23 -231 -126 -422 -230 -192 -104 -348 -192 -348 -196 0
-3 25 -52 56 -108 l56 -102 41 24 c71 41 672 366 690 373 16 6 17 -13 17 -255
l0 -261 190 0 190 0 2 263 3 263 365 -188 c201 -103 370 -187 375 -188 6 0 34
47 62 105 l52 104 -214 111 c-118 60 -312 160 -430 221 -118 60 -217 114 -220
118 -2 5 -5 195 -5 422 l-1 414 75 3 75 3 37 64 c19 36 39 65 42 65 4 0 171
-92 372 -204 l365 -203 0 -124 c0 -68 -4 -289 -8 -491 l-8 -368 120 0 121 0 0
33 c1 117 21 802 24 805 3 2 107 -53 231 -123 125 -69 229 -125 230 -123 2 2
43 76 93 166 l91 162 -48 28 c-27 15 -129 72 -229 127 -99 55 -179 102 -177
105 2 3 159 107 349 230 190 124 346 228 346 231 0 5 -113 183 -125 197 -1 1
-186 -117 -410 -262 l-408 -265 -41 23 c-23 13 -180 102 -351 196 -170 95
-320 179 -333 186 l-22 15 40 73 c22 40 40 78 40 84 0 6 -18 41 -40 77 -22 36
-40 69 -40 74 0 4 127 86 283 181 155 96 316 195 358 221 l76 47 64 -37 c59
-34 519 -306 702 -414 l77 -46 60 101 c33 55 57 104 55 108 -2 4 -164 101
-359 216 -196 115 -356 212 -356 215 0 4 98 67 218 140 119 73 219 134 221
136 2 1 -30 60 -73 129 -42 70 -76 128 -74 129 2 1 61 14 133 28 126 24 130
24 171 7 87 -38 274 -93 404 -120 335 -69 701 -65 1043 11 297 65 632 225 834
396 34 29 67 53 73 53 11 0 12 -285 1 -527 l-6 -142 -223 125 c-123 69 -228
124 -234 122 -10 -4 -190 -320 -185 -324 1 -1 101 -57 222 -124 121 -67 223
-125 227 -129 4 -3 -148 -107 -338 -230 -189 -123 -347 -228 -350 -233 -8 -13
117 -200 131 -195 6 3 188 120 404 261 217 141 398 256 402 256 7 0 723 -394
738 -406 2 -2 -13 -32 -33 -68 l-36 -65 40 -66 c22 -36 40 -69 40 -74 0 -4
-162 -107 -359 -229 l-360 -222 -133 79 c-73 42 -260 153 -415 244 -156 92
-286 167 -291 167 -9 0 -122 -186 -122 -199 0 -3 160 -100 355 -215 196 -115
358 -212 360 -216 3 -4 -89 -65 -203 -135 -114 -70 -213 -133 -220 -140 -11
-10 3 -39 78 -161 50 -82 95 -153 100 -158 5 -5 102 48 230 127 132 81 222
131 225 124 2 -7 15 -194 30 -417 14 -222 28 -406 29 -408 2 -2 56 0 120 4 97
6 116 10 116 23 0 9 -14 227 -31 484 -17 258 -29 470 -27 472 2 2 165 103 362
225 266 164 361 218 367 208 5 -7 23 -38 42 -68 l33 -55 86 -3 86 -3 7 -162
c3 -89 5 -279 3 -422 l-3 -259 -422 -230 c-233 -126 -423 -232 -423 -236 0
-10 105 -202 111 -204 3 0 170 88 371 197 200 108 367 197 371 197 4 0 7 -117
7 -260 l0 -260 190 0 190 0 2 263 3 262 365 -187 c201 -103 370 -187 375 -188
6 0 34 47 62 104 l52 105 -227 117 c-563 289 -634 327 -637 338 -2 6 -6 197
-7 424 l-3 412 77 0 76 0 37 65 c20 36 39 65 43 65 4 0 171 -92 372 -204 l365
-203 0 -119 c0 -65 -4 -287 -8 -491 l-9 -373 121 0 121 0 0 48 c0 111 21 787
25 790 2 2 106 -53 230 -123 125 -69 229 -125 230 -123 2 2 43 76 93 165 l90
163 -131 74 c-73 40 -177 99 -231 129 l-99 55 99 65 c230 149 599 390 603 393
3 3 -82 143 -114 187 -12 16 -46 -4 -420 -248 l-408 -265 -31 19 c-17 10 -184
103 -371 206 -187 104 -341 189 -343 191 -2 1 15 36 37 76 23 41 41 80 41 86
0 6 -18 41 -40 77 -22 36 -40 69 -40 74 0 11 711 447 723 443 9 -3 272 -157
764 -448 l73 -43 59 101 c33 56 58 105 56 108 -2 4 -164 101 -359 216 -196
115 -356 212 -356 216 0 3 97 65 215 138 118 73 217 135 219 139 3 4 -33 70
-79 145 -47 76 -85 142 -85 146 0 4 26 11 58 15 218 26 493 131 692 264 102
67 261 222 320 310 61 91 116 215 140 312 24 103 27 266 5 370 -62 295 -293
568 -623 737 l-99 51 18 83 c10 46 24 143 31 216 34 366 -75 776 -295 1111
-242 367 -630 693 -1082 907 l-92 44 8 43 c4 23 8 97 9 163 2 763 -739 1411
-1749 1529 -154 18 -503 18 -653 0z m2085 -5879 c111 -75 250 -143 384 -188
54 -17 99 -33 100 -33 8 -4 32 -439 26 -445 -4 -4 -167 -105 -362 -224 -267
-164 -356 -214 -363 -204 -4 7 -22 37 -39 66 l-30 52 -80 0 -79 0 0 318 c0
176 -3 366 -6 423 l-7 104 179 98 c99 53 180 97 181 97 1 0 44 -29 96 -64z
m-1668 -1 c66 -8 237 -18 380 -21 l260 -6 96 -50 96 -50 6 -171 c4 -95 7 -288
7 -429 l0 -258 -75 -1 c-41 -1 -80 -2 -87 -3 -7 0 -30 -33 -53 -73 -22 -39
-43 -74 -47 -78 -3 -4 -171 85 -373 197 l-367 203 6 315 c7 327 13 440 24 440
4 0 61 -7 127 -15z m-4591 -290 c194 -34 387 -54 598 -64 98 -5 181 -10 183
-13 9 -9 26 -291 18 -298 -4 -4 -167 -105 -362 -224 -267 -164 -356 -214 -363
-204 -4 7 -22 37 -39 66 l-30 52 -80 0 -79 0 0 355 c0 195 3 355 7 355 3 0 70
-11 147 -25z m7278 7 c59 2 103 -1 99 -5 -12 -12 -364 -228 -367 -225 -1 2 -5
57 -9 124 l-7 120 88 -9 c49 -4 137 -7 196 -5z m-5954 -57 c-10 -10 -281 -175
-283 -173 -2 2 -4 37 -7 79 l-3 76 115 10 c149 13 184 14 178 8z"/>
</g>
</svg>
